<svg id="Capa_1" data-name="Capa 1" xmlns="http://www.w3.org/2000/svg" viewBox="0 0 212.22 206.7"><defs><style>.cls-1{fill:#1d1d1b;}.cls-2{fill:#040402;}.cls-3{fill:#30302d;}.cls-4{fill:#10100d;}.cls-5{fill:#060600;}.cls-6{fill:#010100;}.cls-7{fill:#040403;}.cls-8{fill:#030302;}.cls-9{fill:#0e0e0c;}.cls-10{fill:#292927;}.cls-11{fill:#84bee8;}.cls-12{fill:#e5e3d9;}.cls-13{fill:#e1dfd5;}.cls-14{fill:#eae8de;}.cls-15{fill:#e4e3d9;}.cls-16{fill:#eceae0;}.cls-17{fill:#1b1a17;}.cls-18{fill:#150a00;}.cls-19{fill:#d6d4cb;}.cls-20{fill:#1b1915;}.cls-21{fill:#eeece2;}.cls-22{fill:#110100;}.cls-23{fill:#88c3ee;}.cls-24{fill:#140a00;}.cls-25{fill:#120401;}.cls-26{fill:#a5a49c;}.cls-27{fill:#17120a;}.cls-28{fill:#130500;}.cls-29{fill:#88c4ee;}.cls-30{fill:#e9e7dd;}.cls-31{fill:#130700;}.cls-32{fill:#140800;}.cls-33{fill:#140900;}.cls-34{fill:#130600;}.cls-35{fill:#100;}.cls-36{fill:#150b00;}.cls-37{fill:#6188a4;}.cls-38{fill:#140902;}.cls-39{fill:#160d02;}.cls-40{fill:#060605;}.cls-41{fill:#050504;}.cls-42{fill:#4d6a7e;}.cls-43{fill:#dddbd1;}.cls-44{fill:#161614;}.cls-45{fill:#0c0c0a;}.cls-46{fill:#1f201f;}.cls-47{fill:#222423;}.cls-48{fill:#1d1813;}.cls-49{fill:#150a08;}.cls-50{fill:#6289a5;}.cls-51{fill:#fdfdfd;}.cls-52{fill:#1f1f1d;}.cls-53{fill:#232321;}.cls-54{fill:#20201d;}.cls-55{fill:#130a01;}.cls-56{fill:#202221;}.cls-57{fill:#222220;}.cls-58{fill:#13110c;}.cls-59{fill:#21211f;}.cls-60{fill:#161613;}.cls-61{fill:#2c2c2a;}.cls-62{fill:#191717;}.cls-63{fill:#080807;}.cls-64{fill:#242422;}.cls-65{fill:#1c1c1a;}.cls-66{fill:#202020;}.cls-67{fill:#262624;}.cls-68{fill:#0f0f0c;}.cls-69{fill:#242524;}.cls-70{fill:#161514;}.cls-71{fill:#252523;}.cls-72{fill:#0a0a08;}.cls-73{fill:#1e1e1c;}.cls-74{fill:#2a2a28;}.cls-75{fill:#20201e;}.cls-76{fill:#30302e;}.cls-77{fill:#0f0f0d;}.cls-78{fill:#020202;}.cls-79{fill:#ebe9df;}.cls-80{fill:#7d7d7b;}.cls-81{fill:#272928;}.cls-82{fill:#11110e;}.cls-83{fill:#030300;}.cls-84{fill:#5d5c59;}.cls-85{fill:#9e9c95;}.cls-86{fill:#2b2b29;}.cls-87{fill:#272724;}.cls-88{fill:#150c00;}.cls-89{fill:#74736f;}.cls-90{fill:#73726e;}.cls-91{fill:#797974;}.cls-92{fill:#292a29;}.cls-93{fill:#130f09;}.cls-94{fill:#edebe1;}.cls-95{fill:#a8a6a0;}.cls-96{fill:#150c03;}.cls-97{fill:#14120e;}.cls-98{fill:#313130;}.cls-99{fill:#0b0b09;}.cls-100{fill:#2f2f2c;}.cls-101{fill:#1b1b19;}.cls-102{fill:#070706;}.cls-103{fill:#020201;}.cls-104{fill:#020200;}.cls-105{fill:#81b9e1;}.cls-106{fill:#18140c;}.cls-107{fill:#160e00;}.cls-108{fill:#050502;}.cls-109{fill:#2d2d2b;}.cls-110{fill:#272725;}</style></defs><path class="cls-1" d="M27.11,139.79c-10.28-2.3-10.38-2.78-4.46-11.07,5.69-8,13.12-14,20.8-19.81,2.95-2.22,2.74-3.67.47-6.36A86.36,86.36,0,0,1,25.57,67.43,14.78,14.78,0,0,1,25.21,61c6.1-1,12.26-.18,18.38-.47,1.81-.09,3.67.36,5.43-.38,6.11,0,12.24-.34,18.32.09,4.41.31,5.39-1.51,4.83-5.25.41-1.61.91-3.21-.28-4.72A7,7,0,0,1,71.21,46c.26-1.6,1-3.24-.29-4.75A4,4,0,0,1,70.21,38c.37-1.67.92-3.35-.38-4.89-.89-.9-.76-2-.64-3.1.55-.85.32-1.81.36-2.73A1.88,1.88,0,0,0,69.33,26a1,1,0,0,1-.41,1.33A4.28,4.28,0,0,1,68.24,24c.1-2.48,2.16-2.33,3.76-2.79,14.19,1.62,28.42,4.86,39.52,13.54,7.13,5.58,10.52,3.49,16.1-.4A103.47,103.47,0,0,1,156.05,20.7c3.25-1,6.64-1.65,10-2.46a4,4,0,0,0,2.92.22c4.17-1.28,5.83.57,5.85,4.57-1.71,9.54-3.4,19.08-5.13,28.61-1.23,6.75-1.25,6.74,5.37,6.46.66,0,1.32.06,2,.09,1.34.84,3-.06,4.24.6-.35-.37-1.12-.24-1.46-.84,13.21-1.93,24.74-8.62,37-13.13,3.34,2.47,1.56,6.17,2.24,9.28-.23,11.36-6.18,20.8-10.33,30.84-.49,1.19-1.09,2.33-1.84,3.93,6.52.33,11.38-3.6,17-4.92,3.49-.83,5.69.17,5.91,4.12a7.39,7.39,0,0,0,0,4.91A5.54,5.54,0,0,1,229,97.2c-1.28,1.15-.5,2.48-.34,3.76-3,14.45-10.88,25.69-22.56,34.49-.9.68-2.79,1.31-2,3a5.63,5.63,0,0,0,3,2.64c5.36,2.52,11.11,2.89,16.74,3.67,2.39.33,3.77,2.31,6.26,2.34,1.62,0,.37,1.82.13,2.8-2.7,10.71-10.26,17.78-18.66,24-4.34,3.18-9.33,5.47-14,8.16-1.31,1.18-.78,2.61-.78,4.09,0,8,1.11,16-.77,24-.4,2.35-2.31,2.42-4.08,2.7a18.51,18.51,0,0,0-7.91,0c-8.12-1.48-16.12-3.39-22.69-8.77-1.87-1.53-3-.26-4.39.35-6.11,2.72-11.5,7.16-18.54,7.65-2,2.73-.33,5.85-.91,8.72-1.09,3-3.15,2.35-5.28,1.45a1.72,1.72,0,0,1-.46-1.38c.06-.23.13-.47.19-.71a5.41,5.41,0,0,0,.49-4.54,2.41,2.41,0,0,0-1.68-1.39c-1-.18-2-.25-3-.49a10.47,10.47,0,0,0-6.34,0c-2.17.58-2.21,2.11-1.73,3.87.15.6,0,1.23.21,1.84.06-.75.6-1,1.2-1.3a7.4,7.4,0,0,1,5.29.79,6,6,0,0,1,1.17.84,9.48,9.48,0,0,1,1,1.13c.74,1.22,1.53,2.46-.91,2.53-3.95-.21-7.92.43-11.85-.36-2-.33-1.65-1.81-1.56-3.17.26-2.32,1.17-4.7-.59-6.86-9.35-.63-17.74-3.35-23.88-11-8.31,7.51-17.67,11.32-28.93,9,.27-1.42-2-1.57-1.52-3.11,1.55-7,4.65-13.7,4.81-21.05a6.45,6.45,0,0,0-5-.12l-3,0c-3.74-.55-7.47-.95-11.15.32-3.91.91-7.88.73-11.85.64a7.89,7.89,0,0,0-4.9-.09c-4.1-1.46-3.59-4.09-1.79-7.05,6.72-11.06,13.13-22.35,22.66-31.38a27.48,27.48,0,0,0,2.29-2.86c-6.86-3.84-14.37-4.41-21.5-6.28.41-.59.84-.84,1.36-.11-.14-.67-.69-.57-1.14-.56A6,6,0,0,0,27.11,139.79Z" transform="translate(-18.69 -17.2)"/><path class="cls-2" d="M196,210.06c0-8,0-15.92,0-23.88,0-1.53-.74-3.45,1.55-4.19l-.44,2.63a166.53,166.53,0,0,1,0,23.64C197.43,209.3,197,209.85,196,210.06Z" transform="translate(-18.69 -17.2)"/><path d="M49,60.17c-5.89,2-12,.4-17.92.85-2,.15-3.93,0-5.89,0,.69-2,2.43-1.22,3.69-1.21C35.61,59.85,42.32,60,49,60.17Z" transform="translate(-18.69 -17.2)"/><path class="cls-1" d="M197.09,208.26a207.15,207.15,0,0,1,0-23.64A90,90,0,0,1,197.09,208.26Z" transform="translate(-18.69 -17.2)"/><path class="cls-3" d="M115.72,223.05l13.36-.36c2.71-.95,5.37-.37,8,.29A65,65,0,0,1,115.72,223.05Z" transform="translate(-18.69 -17.2)"/><path class="cls-4" d="M219.06,54.1c-2.43-2.68,0-6.55-2.24-9.28,1.19-1.39,1.92-.87,2.28.62C219.78,48.32,220.25,51.22,219.06,54.1Z" transform="translate(-18.69 -17.2)"/><path class="cls-5" d="M137.1,223l-8-.29-2-1.53c1.61-1.56,3.22-1.76,4.83,0,1.77,1.07,3.49,1.39,5.14-.21.28-.45.55-.45.83,0C138,221.76,138.2,222.6,137.1,223Z" transform="translate(-18.69 -17.2)"/><path class="cls-6" d="M44.87,187.17a4.08,4.08,0,0,1-.39-.31c-.18-.23-.34-.49-.51-.73,4,.07,8.13-1.08,12.05.72Z" transform="translate(-18.69 -17.2)"/><path class="cls-7" d="M174.79,23c-.66-5.74-6-3-8.77-4.79l2.74-.26a8.55,8.55,0,0,1,5.94.13C175.68,19.73,175.05,21.39,174.79,23Z" transform="translate(-18.69 -17.2)"/><path class="cls-8" d="M137.84,220.93H137c.61-3-1.45-6.31,1.36-8.92Z" transform="translate(-18.69 -17.2)"/><path d="M184,212.78a8.34,8.34,0,0,1,7.91,0A17.19,17.19,0,0,1,184,212.78Z" transform="translate(-18.69 -17.2)"/><path class="cls-9" d="M59.24,208c.87.62,1.55,1.46,2.37,2.13,1.33,1.07-.67.49-.85,1C57,211.62,58.68,209.53,59.24,208Z" transform="translate(-18.69 -17.2)"/><path class="cls-6" d="M113.57,213c2.5,2.09,1.69,4.46.59,6.86Q113.88,216.46,113.57,213Z" transform="translate(-18.69 -17.2)"/><path class="cls-8" d="M72,21.22c-1.19,1-3,1.25-3.76,2.79C67,19.76,69.86,21,72,21.22Z" transform="translate(-18.69 -17.2)"/><path d="M70.92,41.25c2.24,1.46,1.11,3.11.29,4.75Z" transform="translate(-18.69 -17.2)"/><path d="M71.89,50.29c2.39,1.44,1.09,3.09.28,4.72Z" transform="translate(-18.69 -17.2)"/><path class="cls-1" d="M174.7,18.11,168.76,18C170.76,17.21,172.75,16.65,174.7,18.11Z" transform="translate(-18.69 -17.2)"/><path class="cls-7" d="M68.92,27.29l.61-1.18c.15.16.43.31.44.48.06,1.21.35,2.49-.78,3.43Z" transform="translate(-18.69 -17.2)"/><path d="M69.83,33.12c1.88,1.49,1.5,3.16.38,4.89Z" transform="translate(-18.69 -17.2)"/><path class="cls-2" d="M179.78,58a3.92,3.92,0,0,1,.92.36c.1.06,0,.59,0,.6-1.31.16-2.65.46-3.7-.72Z" transform="translate(-18.69 -17.2)"/><path class="cls-7" d="M27.11,139.79c.83-1,1.95-.84,3-.76.3,0,.58.35.86.53l-1.22.59Z" transform="translate(-18.69 -17.2)"/><path class="cls-6" d="M229.75,93a3.67,3.67,0,0,1,0-4.91Z" transform="translate(-18.69 -17.2)"/><path class="cls-10" d="M59.06,186.8c1.69-1.22,3.36-1.41,5,.12Z" transform="translate(-18.69 -17.2)"/><path d="M228.7,101c-1-1.35-1.51-2.66.34-3.76Z" transform="translate(-18.69 -17.2)"/><path class="cls-6" d="M28.12,187.72a3.75,3.75,0,0,1,4.9.09Z" transform="translate(-18.69 -17.2)"/><path class="cls-11" d="M68.21,202q1.33-5.53,2.66-11.07c-.84-1.58.32-3.5-.84-5L68.14,184c-2.41-1.15-5-.26-7.44-.54-2.86-.18-5.75.37-8.59-.33-5.32,0-10.64-.16-16-.1-3,0-4-.77-2.3-3.7a217.23,217.23,0,0,1,13.89-20.39c3-4,6.48-7.72,9.71-11.6,1.55-1.85,1.29-2.81-.79-4.67A25.25,25.25,0,0,0,43,136.16c-1.29.32-2.58.76-3.76-.3a4,4,0,0,0-3.24-.7c-2.32.27-4.66.92-6.91-.34-1.8-.84-2.65-1.66-.82-3.57,6.6-6.93,13-14,21.23-19.16,4.75-3,4.28-4.1,1-8.77C42.73,92.45,34.91,81.56,32.4,68c-.23-1.23-.55-2.23.69-3A7.29,7.29,0,0,1,38,64.89h2.06c4.15-1.68,8.46-.56,12.7-.75,2.35.69,4.76.33,7.15.42,2.65,0,5.3,0,8,0,2,.14,4.1-.34,6.1.33,6.16.33,6.14.33,5.26-5.71-1.13-7.67-2.21-15.33-3.32-23-.88-1.63.15-3.53-.75-5.15-.88-4.07-.32-5.85,4.57-4,12.56,4.72,25.25,9.09,35.66,18,2.91,2.49,5.25.85,7.56-.9,10.13-7.64,21.06-13.77,33.23-17.51,3-.93,6.06-1.75,9.08-2.63,3.22-.94,4.1.07,3.38,3.39-2.09,9.74-4,19.51-5.84,29.31C161.46,64,161.58,64,169,64c.67,0,1.33.09,2,.14,1.77.72,3.66-.73,5.41.29a2,2,0,0,0,.3.14c0-.15-.06-.3-.1-.46a.83.83,0,0,1,.47-.92c13.21-1.19,25.3-6.21,37.45-11.1,1.09,1.44.23,2.63-.15,3.77C210.53,67.33,206.18,78.57,200,89a17.59,17.59,0,0,0-1.24,2.72c-.47,1.2-1.33,2.42-.15,3.69s2.47.61,3.71.25q8.37-2.4,16.71-4.91c1.59-.49,3.12-1.17,4.84-.73a4.39,4.39,0,0,1-.05,4.77c-1.7,10-5,19.26-11.82,26.91-3.73,4.17-7.72,8.11-11.66,12.09-4.19,4.24-3.82,7.56,1.18,11.06,3.94,2.76,8.56,3.23,13,4.15,9.61,2,9.67,2,4.45,10.13-4.64,7.25-11.22,12.19-19,15.78-2.83,1.31-5.82,2.43-8.16,4.65-.93,7.23-.12,14.49-.45,21.73-.07,1.52.83,3.31-.84,4.56-7.94.71-15.27-2-22.62-4.29-2.43-.78-2.26-2.94-.88-4.63a50.93,50.93,0,0,0,10.86-22.24c.45-2.19,2.09-1.66,3.46-1.91,4.21-.78,8.18-1.47,11.5-5a11,11,0,0,0,2.63-11.41c-1.13-3.87-4-7-8.34-7.49s-5.19-2.05-4.63-6.35c.79-6.19,1.07-12.55-.43-18.77-1.14-1.86-.7-3.8-.3-5.73-1.37-17.62-9.34-31.68-22.31-43.52C148,64,134.68,61.26,119.84,62.93c-1.54,1.06-3.17.64-4.79.26C94.76,65.84,83.26,78.49,77.2,97a136.39,136.39,0,0,0-6,29.1c.3,1.94.79,3.89-.31,5.76s-.85,4.11-.7,6.23a22.14,22.14,0,0,1,0,7.87c-.34,1.43-1.65,1.49-2.71,1.84-6.3,2.08-9.24,6.68-9.66,13.05-.71,10.66,3.43,15.36,14.12,16,1.89.11,3,.18,3.16,2.53.45,6,3.37,10.91,7,15.52,2.92,3.69,2.34,6.12-2.18,6.85-2.82.46-5.14,2.16-7.95,2.27C70.93,203,68.7,204.16,68.21,202Z" transform="translate(-18.69 -17.2)"/><path class="cls-12" d="M174.88,153.83c-2.25,8.41-3.57,17.07-6.78,25.22a62.43,62.43,0,0,1-6.76,13.15c-2.3,3.29-4.71,4.41-8.34,2.68a5.63,5.63,0,0,1-2.78-1c.83,1.18,1.93,2,2.73,3.15-.56,4.23-3.35,4.37-6.63,3.59l-.29.31-.37-.21-.21.37a1.7,1.7,0,0,1-.27.81c-2.59,4.27-5.68,4.15-9.1,1a1.93,1.93,0,0,0-.88-.44,8.21,8.21,0,0,0-1-.05l-.48-.11.47.15.49.09.24.44c.47,7.84-5,3.21-8,3.79a23.53,23.53,0,0,0-8.93,0c-9.55,1-18.44-1.61-25.08-8.09-5.42-5.28-8.32-12.79-10.86-20.1-4.37-12.59-4.58-25.67-4.41-38.74.11-7.94,1-15.87,1.56-23.81,2.42-.07,0-1.52.61-2.12,1.85-9.86,4.49-19.45,9.73-28.16,7.51-12.49,19-17.2,33-17.27,3.15,0,6.3.23,9.45.35,1.3-.31,2.61-.69,3.81.28,7,2,13.65,4.66,19.38,9.47a40.71,40.71,0,0,1,6.93,8c7.36,10.4,12.32,21.83,13.93,34.58a20.55,20.55,0,0,0,.79,2.83,36.78,36.78,0,0,1,.05,14c-.28,2-.55,4-.82,6,.38,1.29.75,2.59-.26,3.79a2.39,2.39,0,0,0-.63,2.23C175.42,151.33,175.86,152.65,174.88,153.83Z" transform="translate(-18.69 -17.2)"/><path class="cls-13" d="M182,154c3.94-.53,6.89.2,7,5.09.07,4.5-3.75,9.4-7.63,9.69-2.15.16-1.55-1.2-1.33-2.21.49-2.24,1.12-4.44,1.7-6.65C181.45,157.92,181,155.92,182,154Z" transform="translate(-18.69 -17.2)"/><path class="cls-14" d="M64.93,160.7a3.88,3.88,0,0,1,.14-1.47c1.13-1.89,1.71-5.15,4-4.93,2.1.21,1.36,3.56,2.17,5.36,1.29,2.91-.48,5.92.87,8.82.69,1.49-.76,1.87-2.09,1.6-2.29-.45-4.53-1-5.13-3.76A9.86,9.86,0,0,1,64.93,160.7Z" transform="translate(-18.69 -17.2)"/><path class="cls-15" d="M127.05,219.82l-6.06-1c-2.77-2.53-2.09-4.2,1.33-5a12,12,0,0,1,4.89,0c2,.34,4.65.1,4.55,3.23S129.22,219.88,127.05,219.82Z" transform="translate(-18.69 -17.2)"/><path class="cls-16" d="M127.05,219.82c.92-1.52,5.15-.57,3.6-3.33-1.91-3.38-5.94-1.45-8.94-1.34-2.76.1-1.23,2.28-.72,3.7-.91.42-2.25,2.13-2.1-.68-1.5-3.91.63-5,4-5.19,3-.21,5.89.6,8.86.6a5.87,5.87,0,0,1,.57,6.22c-1.74,1.07-3.57.59-5.4.36Z" transform="translate(-18.69 -17.2)"/><path class="cls-17" d="M53.08,64.88h-13c4.45-3.62,9.24-1.9,14-.85A1.71,1.71,0,0,1,53.08,64.88Z" transform="translate(-18.69 -17.2)"/><path class="cls-18" d="M190.56,205.87c0-6.93,0-13.87.15-20.8,0-1.86-.89-4,1.14-5.49,0,7.46.09,14.93.08,22.4C191.93,203.4,192.37,205.05,190.56,205.87Z" transform="translate(-18.69 -17.2)"/><path class="cls-19" d="M131.76,214c-2.76,0-5.53.18-8.26-.11-3.37-.35-4.82.95-4.61,4.27-.85-2.42-2.37-5.11,2.15-5.37a14.72,14.72,0,0,1,6.92,0l3.94.38c.34.25.44.46.28.62A.61.61,0,0,1,131.76,214Z" transform="translate(-18.69 -17.2)"/><path class="cls-9" d="M153,197c-.74-.29-1.82-.38-2.15-.92-1-1.59-4.9-2-3.43-3.67s4.32.11,5.63,2.44C153,195.59,153,196.31,153,197Z" transform="translate(-18.69 -17.2)"/><path d="M176.93,138q0-7-.05-14A19.77,19.77,0,0,1,176.93,138Z" transform="translate(-18.69 -17.2)"/><path class="cls-20" d="M38.51,184.22H46v.46H38.09Z" transform="translate(-18.69 -17.2)"/><path class="cls-21" d="M118,206.78a10.56,10.56,0,0,1,8.93,0Z" transform="translate(-18.69 -17.2)"/><path class="cls-22" d="M52.11,183.11l8.94-.08c.32.2.43.4.32.61s-.22.3-.33.3C58.07,183.57,55,184.83,52.11,183.11Z" transform="translate(-18.69 -17.2)"/><path class="cls-23" d="M68.21,202l3.83,2c-1.54-.39-2.27,1.06-3.51,1.59C67.5,204.4,68.17,203.15,68.21,202Z" transform="translate(-18.69 -17.2)"/><path class="cls-24" d="M68.05,64.88h-8c-.33-.18-.44-.36-.33-.55s.22-.27.34-.27h8c.32.18.43.36.32.54S68.15,64.88,68.05,64.88Z" transform="translate(-18.69 -17.2)"/><path class="cls-25" d="M70.25,145.91c0-2.62,0-5.25,0-7.87A8.52,8.52,0,0,1,70.25,145.91Z" transform="translate(-18.69 -17.2)"/><path d="M128,212.8H121A6.5,6.5,0,0,1,128,212.8Z" transform="translate(-18.69 -17.2)"/><path class="cls-26" d="M131.76,214c.05-.28.1-.55.14-.83,1,.23.91,1.13,1.21,1.81.45,1.66.79,3.33-.2,4.94l0-.19c-.26.53-.57.53-.92.09Z" transform="translate(-18.69 -17.2)"/><path class="cls-27" d="M60.06,64.06c0,.27,0,.55,0,.82h-7l1-.84Z" transform="translate(-18.69 -17.2)"/><path class="cls-28" d="M29.1,134.82l6.91.34C33.64,136.34,31.31,136.79,29.1,134.82Z" transform="translate(-18.69 -17.2)"/><path class="cls-29" d="M176.75,63.93c-1.86,2-3.8,1.33-5.76.2a1.75,1.75,0,0,1,.89-.27A7.8,7.8,0,0,1,176.75,63.93Z" transform="translate(-18.69 -17.2)"/><path class="cls-30" d="M79.85,113.92c.37.52,1,1,1,1.55.06.83.75,1.93-.44,2.46A13.53,13.53,0,0,1,79.24,116C79,115.21,78.78,114.38,79.85,113.92Z" transform="translate(-18.69 -17.2)"/><path class="cls-31" d="M181.81,118.05l.3,5.73C180,122,180.87,120,181.81,118.05Z" transform="translate(-18.69 -17.2)"/><path class="cls-32" d="M70.91,131.81l.31-5.76c1.41,1.87.83,3.92.53,5.94,0,0-.3.1-.43.07A1.37,1.37,0,0,1,70.91,131.81Z" transform="translate(-18.69 -17.2)"/><path class="cls-33" d="M61,183.94c0-.31,0-.61,0-.91,2.39.13,5-1.57,7.09.95Z" transform="translate(-18.69 -17.2)"/><path class="cls-34" d="M115.05,63.19l4.79-.26C118.36,65.13,116.7,64.07,115.05,63.19Z" transform="translate(-18.69 -17.2)"/><path d="M182,154l-.3,5.92C180.63,157.87,180.32,155.88,182,154Z" transform="translate(-18.69 -17.2)"/><path class="cls-35" d="M68.05,64.88c0-.27,0-.54,0-.81,2,.25,4.13-.75,5.93.82Z" transform="translate(-18.69 -17.2)"/><path class="cls-36" d="M223.78,94.81c0-1.59,0-3.18.05-4.77C225.33,91.65,225.67,93.24,223.78,94.81Z" transform="translate(-18.69 -17.2)"/><path class="cls-3" d="M131.94,219.83a1.62,1.62,0,0,0,.92-.09c-.33.47-.66.93-1,1.4H127l-.13-1C128.6,220.21,130.3,220.55,131.94,219.83Z" transform="translate(-18.69 -17.2)"/><path class="cls-37" d="M75.17,31c1.21,1.58,1,3.36.75,5.15A7.17,7.17,0,0,1,75.17,31Z" transform="translate(-18.69 -17.2)"/><path class="cls-38" d="M39.25,135.86l3.76.3C41.67,137.17,40.36,137.79,39.25,135.86Z" transform="translate(-18.69 -17.2)"/><path class="cls-39" d="M70,185.88c2.33,1.33,1,3.26.84,5C69.44,189.42,70.27,187.56,70,185.88Z" transform="translate(-18.69 -17.2)"/><path class="cls-40" d="M174.88,153.83l.34-3.79C176.11,151.4,176.72,152.73,174.88,153.83Z" transform="translate(-18.69 -17.2)"/><path class="cls-41" d="M135.85,69.12,132,68.84C133.39,67.84,134.71,67.29,135.85,69.12Z" transform="translate(-18.69 -17.2)"/><path class="cls-22" d="M38,64.89,33.09,65A3.54,3.54,0,0,1,38,64.89Z" transform="translate(-18.69 -17.2)"/><path class="cls-42" d="M176.75,63.93l-4.87-.07c1.61-1.11,3.4-.93,5.19-.68Z" transform="translate(-18.69 -17.2)"/><path class="cls-43" d="M64.93,160.7l0,5.62C63.52,164.44,63.78,162.57,64.93,160.7Z" transform="translate(-18.69 -17.2)"/><path class="cls-8" d="M175.85,147.81c.09-1.27.17-2.53.26-3.79C177.2,145.36,177.67,146.66,175.85,147.81Z" transform="translate(-18.69 -17.2)"/><path class="cls-44" d="M73.56,166.81a3.29,3.29,0,0,1,0,3.41A3,3,0,0,1,73.56,166.81Z" transform="translate(-18.69 -17.2)"/><path d="M132.91,219.93c.06-1.65.13-3.3.2-4.94C134.4,216.69,134.56,218.34,132.91,219.93Z" transform="translate(-18.69 -17.2)"/><path class="cls-45" d="M145.18,201.9a3.83,3.83,0,0,1-.3-.61c0-.1.05-.23.08-.35a2.26,2.26,0,0,1,1.32-.35l0,0Z" transform="translate(-18.69 -17.2)"/><path d="M135,202.11c.69-.18.92.25,1.06.8l-1.15.08h0c-.31-.22-.4-.43-.27-.62S134.9,202.11,135,202.11Z" transform="translate(-18.69 -17.2)"/><path class="cls-46" d="M83.15,44.06l-1.25-6c-.26-1.32-1.13-2.86,1.17-3.24,3.07,1.21,6.52,1.58,9,4.11.56,1.26-.18,1.87-1.18,2.36-1.67.39-4.31-1.92-4.83,1.72C85.29,44,84.63,45.21,83.15,44.06Z" transform="translate(-18.69 -17.2)"/><path class="cls-47" d="M142.8,38.51c2.7-2.56,6.09-3.95,9.38-5.51,1-.45,1.86-.8,2.55.34s-.12,1.78-.87,2.47c-2.85,2.59-7,2.6-9.9,5.12C142.91,40.44,142.08,39.85,142.8,38.51Z" transform="translate(-18.69 -17.2)"/><path class="cls-48" d="M83.15,44.06l2.9-1a5.15,5.15,0,0,1,0,1.47c-.53,1.69,2,4.69-.86,4.89C83.3,49.55,82.82,46.31,83.15,44.06Z" transform="translate(-18.69 -17.2)"/><path class="cls-46" d="M142.8,38.51c.38.81.77,1.62,1.16,2.42l-1.37,1.35c-.93.91-1.9,2.06-3.11.48s.37-2.23,1.27-3A14.56,14.56,0,0,1,142.8,38.51Z" transform="translate(-18.69 -17.2)"/><path class="cls-49" d="M90.88,41.33,92.06,39c1.63-.11,2.53.71,1.85,2.2S92,42.22,90.88,41.33Z" transform="translate(-18.69 -17.2)"/><path class="cls-50" d="M83.07,34.86c-1.55.66-.81,2.15-1.17,3.24a2.62,2.62,0,0,1-.46-3.48C81.82,34.06,82.58,34.34,83.07,34.86Z" transform="translate(-18.69 -17.2)"/><path class="cls-51" d="M109.2,108.07a.77.77,0,0,0,.69-.09,7.84,7.84,0,0,0,1.49.63c.5.24,1,.5,1.5.77a5.14,5.14,0,0,1,1,.67,11.34,11.34,0,0,1,2.38,3,19.62,19.62,0,0,1,2.21,5.83c1.34,4.28.15,8.24-1.55,12.13l.07-.1c-.46.61-1,1.11-1.54,1.69a12,12,0,0,0-1.07,1.47,4.24,4.24,0,0,1-.95.94,30.9,30.9,0,0,1-7.18,3,22.18,22.18,0,0,1-6.9.11A17.59,17.59,0,0,1,92,133.92l.12.11A10.66,10.66,0,0,1,89,129.19a21.18,21.18,0,0,1-1.17-5,12.55,12.55,0,0,1-.07-1.5,21.94,21.94,0,0,1,.31-4.5,13.52,13.52,0,0,1,4.43-7.92c1.41-1.3,2.68-2.8,4.68-3.27C101.23,106.77,105.38,105.59,109.2,108.07Z" transform="translate(-18.69 -17.2)"/><path class="cls-52" d="M140,142.85c-3.4-.37-6.35-1.5-8.1-4.71a1.57,1.57,0,0,1,.55-2.52c2.67-.36,4.36,1.65,6.46,2.67a3.85,3.85,0,0,0,4.61.79c7.52-.2,12.29-4.09,14.77-11a5.22,5.22,0,0,0,.49-6.51,23.16,23.16,0,0,1-2.31-7.38,3.11,3.11,0,0,1,1.56-2.4c2.75,1.56,3.62,4.17,4,7.08a27.82,27.82,0,0,1,0,10.45c-1.37,8-6.9,11.67-14.13,13.55A17.05,17.05,0,0,0,140,142.85Z" transform="translate(-18.69 -17.2)"/><path class="cls-53" d="M124,183.09l1,0c1.61.24,3.25,1,4.77-.28,5.64-.26,10.78-2.6,16.19-3.8.57.76,2.65,0,2,2-5.35,3.85-11.57,4.61-17.88,5.06l-.69,0c-1.84-.07-3.64.5-5.49.33-2.23-.15-4.48.12-6.71-.17-.36-3.24,2.45-2.19,3.94-2.91C122.11,183.08,123.14,183.69,124,183.09Z" transform="translate(-18.69 -17.2)"/><path class="cls-54" d="M158.06,111.77a2.47,2.47,0,0,1-1.24,2.29c-3.22-1.09-5.7-3.64-9-4.55-1.94-1.61-4.28-1.32-6.55-1.35a.39.39,0,0,0-.28.2,2.18,2.18,0,0,0,.06.49,10.33,10.33,0,0,1-7.15,2.45c-1.16-.8-1.88-1.72-.92-3.14,7-4.44,14.15-3.31,21.25-.24A6.87,6.87,0,0,1,158.06,111.77Z" transform="translate(-18.69 -17.2)"/><path class="cls-55" d="M99,87.31c5.37.13,10.19-3.27,15.67-2.43,4.49.17,9,0,13.47.4a1.85,1.85,0,0,1,1.11,1.22,1.84,1.84,0,0,1-1,1.29c-5.2,1.46-10.62-.22-15.83,1.11a28.73,28.73,0,0,1-4,.56c-3.14.26-6.16,1.92-9.41.81A2.14,2.14,0,0,1,99,87.31Z" transform="translate(-18.69 -17.2)"/><path class="cls-56" d="M137,95.88l-5.08.29a15.16,15.16,0,0,1-6.93,0l-6,.06h-.68a4.37,4.37,0,0,1-2.52-1,2.24,2.24,0,0,1-.13-2.09,2.57,2.57,0,0,1,1.21-.87,7.8,7.8,0,0,1,3.84,0c5.45.77,10.92.42,16.38.2a42.18,42.18,0,0,1,6-.48,3.16,3.16,0,0,1,2,1c.11,2.15-1.22,2.59-3,2.5C140.47,95.67,138.71,95.12,137,95.88Z" transform="translate(-18.69 -17.2)"/><path class="cls-57" d="M129,86c-4.78-.22-9.66.68-14.31-1.14a12.08,12.08,0,0,1,6.38-.67,19.5,19.5,0,0,0,7.87,0,52.92,52.92,0,0,1,14.4,1.65A4.64,4.64,0,0,1,140.13,88c-2,.43-4.15.19-6.14.89a6.67,6.67,0,0,1-4.67-.37,1,1,0,0,1-.39-1.38l.08-.36a1.25,1.25,0,0,0,.66-.3A1.26,1.26,0,0,1,129,86Z" transform="translate(-18.69 -17.2)"/><path class="cls-58" d="M116.05,93.21V95a3.77,3.77,0,0,1-1.74,1.54,15.27,15.27,0,0,1-2.21.79,1.08,1.08,0,0,1-1.07-.22c-4.07-.74-7.88,2.47-12,.8a1,1,0,0,1,0-1.17c1.24-.33.75-2,1.88-2.43C105.86,93,110.82,91.19,116.05,93.21Z" transform="translate(-18.69 -17.2)"/><path class="cls-59" d="M123.06,173.16a6.59,6.59,0,0,1-3.23-2.89c-.74-1.25-2-2.94-.46-3.94,1.81-1.2,2.16.89,2.89,2.1,1.48,2.42,3.17,1.7,4.76,0,1.1-1.16.92-3.24,2.8-3.83.64.22.72.91,1.11,1.34a5.39,5.39,0,0,1-2.57,6.1c-1.54.4-2.94,1.33-4.61,1.16C123.52,173.21,123.29,173.18,123.06,173.16Z" transform="translate(-18.69 -17.2)"/><path class="cls-60" d="M129.91,163.17c-1.51-.72-.62-2.18-1-3.25l.06-.82c.61-4-1.13-8.17,1.15-12,.49,0,1.37-.09,1.4,0,1.33,5,2.67,10-.21,14.93C130.71,162.29,130.47,162.94,129.91,163.17Z" transform="translate(-18.69 -17.2)"/><path class="cls-61" d="M117.16,163c-.16-4.09-.36-8.17-.43-12.26,0-1.21-.5-3.17,1.22-3.25,2.25-.11,1.17,2.11,1.54,3.32.15.47.26.94.39,1.4,1,1.2.73,2.47.18,3.74l-.19,3.07C118.44,160,121.37,163.94,117.16,163Z" transform="translate(-18.69 -17.2)"/><path class="cls-62" d="M91.93,100.31C88.28,96.15,89.73,91,95,89.2a2.93,2.93,0,0,1,1.38,2.16c-.17,1.54-1.08,2.81-1.6,4.23a6.23,6.23,0,0,1-.64,1.09C93.13,97.7,93.26,99.46,91.93,100.31Z" transform="translate(-18.69 -17.2)"/><path class="cls-63" d="M116.92,131c-1.16-4,2.31-8,.24-12,.76-.78,1.48-1.66,2.75-1l.2-.13a11.07,11.07,0,0,1,0,9.17C119.3,128.6,120.12,131.44,116.92,131Z" transform="translate(-18.69 -17.2)"/><path class="cls-64" d="M109.2,108.07h-13C95,108.58,94.41,108,94,107c1.36-1.47,3.28-1.6,5-2.14h.66c1.84.38,3.65,1.46,5.56.24a1.87,1.87,0,0,1,1.84-.24C109.17,105,109.86,106.1,109.2,108.07Z" transform="translate(-18.69 -17.2)"/><path class="cls-4" d="M127.14,129l-1-1.1c-.77-3-1.89-5.93-.19-9-.2-1.23.81-1.93,1.26-2.88a2,2,0,0,1,2.39,1.14,4.87,4.87,0,0,1,.2,2.8,14.51,14.51,0,0,0-.28,6.65,2.75,2.75,0,0,1-1.07,2.44A1.12,1.12,0,0,1,127.14,129Z" transform="translate(-18.69 -17.2)"/><path class="cls-64" d="M127.14,129l1.08-.05c4.38.42,3.85,4.28,4.9,7a2.31,2.31,0,0,0-1.19,2.2C127.74,136.44,126.77,133.06,127.14,129Z" transform="translate(-18.69 -17.2)"/><path class="cls-65" d="M93.09,111.16l-4,6.83a1.92,1.92,0,0,1-1.23.58,1.76,1.76,0,0,1-1.17-.67,11.81,11.81,0,0,1,5.17-9.3A1.92,1.92,0,0,1,93.09,111.16Z" transform="translate(-18.69 -17.2)"/><path class="cls-66" d="M144,150.84c-1.78.27-3.59-.14-3.35-2.17.28-2.4,2.3-.75,3.53-.79,1.93,0,3.87.12,5.8.2.64.78,2.89,0,2.07,2.21-.5.94-1.32.76-2.13.6A9.51,9.51,0,0,0,144,150.84Z" transform="translate(-18.69 -17.2)"/><path class="cls-67" d="M95,147.13c-3.11-.19-5.68-1.38-7.15-4.26-.17-.34.47-1.11.74-1.69,2.31,2,6.11,1.49,7.65,4.69A1.57,1.57,0,0,1,95,147.13Z" transform="translate(-18.69 -17.2)"/><path class="cls-52" d="M107,136.88c2.3-1,4.32-2.59,6.88-2.94a.76.76,0,0,1,.92-.31l.31.45c-.24,3.77-3.17,4.29-6,4.95-1.12.6-1.77-.07-2.39-.85A1.24,1.24,0,0,1,107,136.88Z" transform="translate(-18.69 -17.2)"/><path class="cls-68" d="M106,145.15l1,0c.66.64,2.63-.07,2,1.92-.28,1.1-1.22.86-2,1a10.92,10.92,0,0,1-9.15.09L98,148c-.45-1.27.3-1.92,1.27-2.45C101.48,144.38,103.79,145.51,106,145.15Z" transform="translate(-18.69 -17.2)"/><path class="cls-45" d="M119.91,118.05l-2.75,1c.09-2.24-1.11-4.07-1.9-6,.34-.84-.19-2.46,1.71-1.94A11.57,11.57,0,0,1,119.91,118.05Z" transform="translate(-18.69 -17.2)"/><path class="cls-52" d="M92,133.92c3-.44,4.61,2.31,7,3.17a1.56,1.56,0,0,1,.42,1.3c-.34.73-.78,1.2-1.64.69C94.66,138.73,92.41,137.35,92,133.92Z" transform="translate(-18.69 -17.2)"/><path class="cls-69" d="M160,99.93c-2.23.15-4.18-.77-6.17-1.57-.55-1.26.12-2.08,1-2.82a5.51,5.51,0,0,1,4-.43,2.81,2.81,0,0,1,1.34.9C160.48,97.34,160.77,98.66,160,99.93Z" transform="translate(-18.69 -17.2)"/><path class="cls-70" d="M155.15,177c-.31-2.13-1.8-3.34-3.42-4.47-.66-.46-2.25-.43-1.4-1.88a1.91,1.91,0,0,1,3-.49c1.32.89,2.82,1.72,2.73,3.68C156.34,175,157.33,176.43,155.15,177Z" transform="translate(-18.69 -17.2)"/><path class="cls-71" d="M159,147.72a7.77,7.77,0,0,1-4.11,2.05c-.88-.57-2.91-.07-2-2.23A12.4,12.4,0,0,1,158,145C159.15,145.61,160,146.33,159,147.72Z" transform="translate(-18.69 -17.2)"/><path d="M92,181.69c-2.76-1.48-2.81-4.33-.14-7.87C93,173.37,93.59,174,94,175l-.87,1C92.06,177.76,94,180.13,92,181.69Z" transform="translate(-18.69 -17.2)"/><path class="cls-72" d="M109,185.74a24.18,24.18,0,0,1-7.93-2c.09-2,2-1.43,3-2,1.49,1.16,3.75.35,5.07,2a3.05,3.05,0,0,1,.44,1.09A1.5,1.5,0,0,1,109,185.74Z" transform="translate(-18.69 -17.2)"/><path class="cls-73" d="M129.24,117.08l-2.07-1c-.78-2.72,2-3.35,3-5a1.9,1.9,0,0,1,2.33,1.18C132.58,114.61,131.8,116.43,129.24,117.08Z" transform="translate(-18.69 -17.2)"/><path class="cls-74" d="M97.81,139.08l1.2-1a12.53,12.53,0,0,1,8.07-.06l2,1c-.6,2.06-1.76,1.89-3.16.82a6.64,6.64,0,0,0-4.9,0A3.27,3.27,0,0,1,97.81,139.08Z" transform="translate(-18.69 -17.2)"/><path class="cls-75" d="M91.93,100.31c.41-1.56-.79-3.93,2.14-4.21,1.31.68,3.33.65,3,3C95.52,100.25,94.15,102.05,91.93,100.31Z" transform="translate(-18.69 -17.2)"/><path class="cls-53" d="M104.09,181.7c-.45,1.5-2.3.93-3,2-1.46-.57-4.25-.3-3.53-2.62s2.76-1.06,4.39-.21C102.58,181.23,103.55,180.91,104.09,181.7Z" transform="translate(-18.69 -17.2)"/><path class="cls-76" d="M116.87,185.74l8.26.13c1.49-.7,3-.41,4.57-.22a1.88,1.88,0,0,1,.43.46,2.51,2.51,0,0,0-.41.66c-1.84,1.19-3.77.68-5.69.33-3.37-.57-6.89.4-10.17-1A2.13,2.13,0,0,1,116.87,185.74Z" transform="translate(-18.69 -17.2)"/><path class="cls-31" d="M153,89.1c1.69.15,3.49-.13,5,1.07a2.37,2.37,0,0,1,.33,2.84c-2.93,1.42-4.82-.15-6.51-2.27C151.65,89.81,152.22,89.38,153,89.1Z" transform="translate(-18.69 -17.2)"/><path class="cls-77" d="M88.94,124q.57,2.49,1.13,5c-.75.56-.15,2.44-1.94,2-1.2-1.32-1.26-3-1.27-4.6C86.49,124.64,86.28,123.06,88.94,124Z" transform="translate(-18.69 -17.2)"/><path class="cls-64" d="M88.94,124c-1.52,0-1.82,1.19-2.08,2.36a10.22,10.22,0,0,1-.18-8.47l1.23.09c1.38,1.45,0,3.46,1,5Z" transform="translate(-18.69 -17.2)"/><path class="cls-52" d="M153,89.1l-1.14,1c-1.6,1.86-3.27,1.65-5,.17-.66-2,1.12-2.32,2.1-3.21C150.91,86.56,152.08,87.56,153,89.1Z" transform="translate(-18.69 -17.2)"/><path d="M155.15,177c1-.85.77-2.05.87-3.16,1.58.77.89,2.2,1.11,3.41s1.56,2.24.48,3.51a1.84,1.84,0,0,1-1.73.19C154.18,179.94,155.25,178.31,155.15,177Z" transform="translate(-18.69 -17.2)"/><path class="cls-78" d="M116.87,185.74l-3,.31-4.84-.31c0-.24,0-.48,0-.72,2.14-1.62,5.13.15,7.2-1.79,2-.18,4-.89,5.73.87C120.59,185.74,118.24,184.23,116.87,185.74Z" transform="translate(-18.69 -17.2)"/><path class="cls-5" d="M159,147.72c-.35-.9-.69-1.8-1-2.7.39-.31.77-.63,1.17-.93,1.06-.81,2.25-1.9,3.32-.25.87,1.33-.83,1.81-1.4,2.6A6.73,6.73,0,0,1,159,147.72Z" transform="translate(-18.69 -17.2)"/><path class="cls-79" d="M128.9,159.92c-1.22-4.32-1.89-8.63.28-12.87a49.4,49.4,0,0,1-.1,13Z" transform="translate(-18.69 -17.2)"/><path class="cls-80" d="M129.08,160q0-6.48.1-13a2,2,0,0,1,.93.07C129.43,151.39,130.88,155.84,129.08,160Z" transform="translate(-18.69 -17.2)"/><path class="cls-81" d="M148,96.94a9,9,0,0,1-5.33-.74,30.63,30.63,0,0,1,5.21-2.85c1.3-.25,2.54-.29,3.32,1.08C151.2,96.61,149.1,96.14,148,96.94Z" transform="translate(-18.69 -17.2)"/><path class="cls-82" d="M117,111,115.26,113l-2.38-2.52c-.14-.34-.29-.67-.45-1a2.07,2.07,0,0,1,.17-1.07c.14-.12.28-.24.41-.37A4.41,4.41,0,0,1,117,111Z" transform="translate(-18.69 -17.2)"/><path class="cls-14" d="M106.69,148.82c-3,2.31-6.36,1-9.59.77.05-.13.06-.32.15-.36.29-.13.61-.21.91-.32A20.44,20.44,0,0,1,106.69,148.82Z" transform="translate(-18.69 -17.2)"/><path class="cls-30" d="M115.78,149.11v9.74h-.49v-9.54Z" transform="translate(-18.69 -17.2)"/><path class="cls-83" d="M96.12,91.07A2,2,0,0,1,95,89.2l4-1.89c0,.85,0,1.7,0,2.55C98.49,91.33,97.62,92,96.12,91.07Z" transform="translate(-18.69 -17.2)"/><path class="cls-57" d="M88.13,131l1.94-2a7.35,7.35,0,0,1,2,5C89.86,134.2,88.72,132.94,88.13,131Z" transform="translate(-18.69 -17.2)"/><path class="cls-84" d="M121.93,184.1l-5.9,0a1.59,1.59,0,0,1-2.18-.23l1.21-1.08a22.49,22.49,0,0,1,7.89,0l1.09.32Z" transform="translate(-18.69 -17.2)"/><path class="cls-85" d="M107.08,104.87,106,105.94c-2.46,1.08-4.65-.55-7-.68v-.4a3,3,0,0,0,0-.6,9.49,9.49,0,0,1,7.79-.1A2.29,2.29,0,0,0,107.08,104.87Z" transform="translate(-18.69 -17.2)"/><path class="cls-30" d="M111,97.09a.85.85,0,0,1,.83-.21c2.35-.44,4.72-1.61,7.05.09.16,0,.36,0,.48.1a4.42,4.42,0,0,1,.55.59C116.92,98,113.9,98.73,111,97.09Z" transform="translate(-18.69 -17.2)"/><path class="cls-75" d="M162.07,129.3c0-3.48,0-7,0-10.45A13.89,13.89,0,0,1,162.07,129.3Z" transform="translate(-18.69 -17.2)"/><path class="cls-65" d="M93.09,111.16l-1.24-2.56A2.81,2.81,0,0,1,94,107l2.17,1.07C95.81,109.77,94.35,110.37,93.09,111.16Z" transform="translate(-18.69 -17.2)"/><path class="cls-86" d="M94,175l-2.18-1.14c.81-1.22,1.51-3.36,3.34-2C97.16,173.33,94.89,174.07,94,175Z" transform="translate(-18.69 -17.2)"/><path class="cls-16" d="M120.84,118.06a7.9,7.9,0,0,1,0,8.9A24.43,24.43,0,0,1,120.84,118.06Z" transform="translate(-18.69 -17.2)"/><path class="cls-14" d="M127,173.16c.29.75.75,1.68-.57,1.75s-3.12.5-3.36-1.75l-.09-.36C124.35,172.49,125.75,172,127,173.16Z" transform="translate(-18.69 -17.2)"/><path class="cls-45" d="M141.07,196.76c1.32-.32,2.59-.38,2.92,1.33.1.52-.18,1.57-.46,1.64-1.23.29-2-.54-2.63-1.52A1,1,0,0,1,141.07,196.76Z" transform="translate(-18.69 -17.2)"/><path class="cls-52" d="M144.26,86.93c1-1.44,1.83-.1,2.73.16,0,2.19-1.94,2.45-3.34,3.25a2.31,2.31,0,0,1-2.18-1.89C141.64,86.55,142.7,86.28,144.26,86.93Z" transform="translate(-18.69 -17.2)"/><path class="cls-33" d="M144,89.84c-.08-2.07,2.29-1.51,3-2.75a1.71,1.71,0,0,1,2-.07c-.67.93-1.34,1.85-2,2.77A1.78,1.78,0,0,1,144,89.84Z" transform="translate(-18.69 -17.2)"/><path class="cls-79" d="M120.06,156l-.18-3.74c.13-1.43.27-2.86.4-4.29C120.7,150.65,121.91,153.41,120.06,156Z" transform="translate(-18.69 -17.2)"/><path class="cls-87" d="M113.85,183.83l2.18.23c-2.15,1.71-4.71.44-7,1,0-.45.11-.9.16-1.35C110.72,183.72,112.34,182.23,113.85,183.83Z" transform="translate(-18.69 -17.2)"/><path class="cls-14" d="M106.84,104.16l-7.79.1c2.43-2.26,5.25-1.12,8-.9,0,0,.11.27.08.4A1.9,1.9,0,0,1,106.84,104.16Z" transform="translate(-18.69 -17.2)"/><path class="cls-88" d="M148,94.16c-1.36,1.69-3.42,1.6-5.27,2l-.38.09-.3-.24c-.34-.22-.45-.45-.34-.67s.22-.35.33-.35a3.27,3.27,0,0,0,3-1.74C146.38,92.28,147.2,93.1,148,94.16Z" transform="translate(-18.69 -17.2)"/><path class="cls-82" d="M132.11,112.05l-2-1c.24-1.65,1.54-2.25,2.83-2.86l1,2.68C133.74,111.84,133.18,112.33,132.11,112.05Z" transform="translate(-18.69 -17.2)"/><path class="cls-53" d="M99,146.08,98,148c-1.09,0-2.35.59-3.07-.83l1.24-1.26a2.42,2.42,0,0,1,2.87-.66c.29.21.38.41.28.59S99.13,146.08,99,146.08Z" transform="translate(-18.69 -17.2)"/><path class="cls-89" d="M120.84,118.06c0,3,0,5.93,0,8.9-.25,0-.51.08-.76.13q0-4.59,0-9.17A5.88,5.88,0,0,0,120.84,118.06Z" transform="translate(-18.69 -17.2)"/><path class="cls-90" d="M125.91,118.92c.06,3,.13,6,.19,9-1.36-.56-.9-2-1.32-2.94-.21-1.92-.82-3.86.39-5.68C125.42,119.15,125.67,119,125.91,118.92Z" transform="translate(-18.69 -17.2)"/><path d="M117.16,163c2.62-.16,1.09-3.14,2.71-4a34.64,34.64,0,0,1,.34,3.79c0,.88,0,2.09-1.33,2.06C117.81,164.86,117.26,164.07,117.16,163Z" transform="translate(-18.69 -17.2)"/><path class="cls-91" d="M106.69,148.82l-8.53.09a5.07,5.07,0,0,1-.25-.78l9.15-.09Z" transform="translate(-18.69 -17.2)"/><path class="cls-92" d="M155,96.14l-1.16,2.22c-1.35-.44-2.94,0-4.1-1.15a3.65,3.65,0,0,1,4-2A2.23,2.23,0,0,1,155,96.14Z" transform="translate(-18.69 -17.2)"/><path class="cls-93" d="M159.9,96.09l-1-.09a3.17,3.17,0,0,1-.61-1.07c0-1.38.61-2.65.72-4,3.15.14,2.3,2.25,2,4.09C160.61,95.34,160.5,96,159.9,96.09Z" transform="translate(-18.69 -17.2)"/><path class="cls-40" d="M148,181.05l-2-2c1.24-.1,2.62-2.18,3.7,0C150.49,180.69,149.3,181,148,181.05Z" transform="translate(-18.69 -17.2)"/><path class="cls-78" d="M128.94,84.21a8.37,8.37,0,0,1-7.87,0Z" transform="translate(-18.69 -17.2)"/><path class="cls-30" d="M123,182.77l-7.89,0A8.62,8.62,0,0,1,123,182.77Z" transform="translate(-18.69 -17.2)"/><path class="cls-2" d="M140,142.85a8,8,0,0,1,7.91,0A18.83,18.83,0,0,1,140,142.85Z" transform="translate(-18.69 -17.2)"/><path class="cls-14" d="M108,144.75c-.07-.64-2-1.06-.66-1.59s3.46-.66,3.61,1.93C109.9,145.73,108.89,145.87,108,144.75Z" transform="translate(-18.69 -17.2)"/><path class="cls-94" d="M125,96.16H132A6.62,6.62,0,0,1,125,96.16Z" transform="translate(-18.69 -17.2)"/><path class="cls-95" d="M118.9,97l-7.05-.09L114,96a8.15,8.15,0,0,1,5-.15l0,.42A4.8,4.8,0,0,1,118.9,97Z" transform="translate(-18.69 -17.2)"/><path class="cls-96" d="M97.05,99.09c-.58-1.41-3.21-.77-3-3V96c1.34-.64,2.61-.07,3.9.23A2.63,2.63,0,0,1,99,97v.88Z" transform="translate(-18.69 -17.2)"/><path class="cls-28" d="M154.12,96a7.6,7.6,0,0,0-4.4,1.23L148,96.94,151,95C152.4,94.15,153.61,93.93,154.12,96Z" transform="translate(-18.69 -17.2)"/><path class="cls-97" d="M144.26,86.93c-1.24.08-2.16.54-2.29,1.93a1.56,1.56,0,0,1-2.1.32A1.65,1.65,0,0,1,140,87l3.35-1.17C143.65,86.21,144,86.57,144.26,86.93Z" transform="translate(-18.69 -17.2)"/><path class="cls-98" d="M99,146.08a5.07,5.07,0,0,1,0-.87l-.08-.39a12,12,0,0,1,6,0l1,.33C103.88,146.85,101.36,145.75,99,146.08Z" transform="translate(-18.69 -17.2)"/><path class="cls-14" d="M125.17,119.25l-.39,5.68c-1.3-1.91-.88-3.94-.42-6a.69.69,0,0,1,.43,0A1.52,1.52,0,0,1,125.17,119.25Z" transform="translate(-18.69 -17.2)"/><path class="cls-16" d="M124,187.1l5.69-.33C127.94,188.94,126,188.1,124,187.1Z" transform="translate(-18.69 -17.2)"/><path d="M141.07,196.76l-.17,1.45c-.93-.51-2.37-.61-2-2.21a1.51,1.51,0,0,1,1.09-.84C141.34,195,141.05,196,141.07,196.76Z" transform="translate(-18.69 -17.2)"/><path class="cls-78" d="M129.83,182.85c-1.46,2.23-3.12,1.12-4.77.28Z" transform="translate(-18.69 -17.2)"/><path class="cls-21" d="M105,144.82a14.92,14.92,0,0,1-6,0A5.14,5.14,0,0,1,105,144.82Z" transform="translate(-18.69 -17.2)"/><path class="cls-72" d="M152.86,147.54l2,2.23-2.83.52L150,148.08Z" transform="translate(-18.69 -17.2)"/><path class="cls-78" d="M144,150.84a4.7,4.7,0,0,1,5.92,0A14.06,14.06,0,0,1,144,150.84Z" transform="translate(-18.69 -17.2)"/><path class="cls-99" d="M108,144.75l3,.34c.4,1.67-.5,2.08-1.93,2l-2-1.92Z" transform="translate(-18.69 -17.2)"/><path class="cls-100" d="M92,181.69c.14-1.95-1-4.16,1.17-5.68l0,1c.25,1.66,1.13,3.39-.49,4.88A4.23,4.23,0,0,1,92,181.69Z" transform="translate(-18.69 -17.2)"/><path class="cls-101" d="M159,90.92c.83,1.36.17,2.71,0,4.07-1.75.08-1.67-.79-1-2,0-1,0-1.9,0-2.86C158.7,89.85,158.85,90.39,159,90.92Z" transform="translate(-18.69 -17.2)"/><path class="cls-8" d="M101.05,139.88a3.42,3.42,0,0,1,4.9,0Z" transform="translate(-18.69 -17.2)"/><path class="cls-94" d="M92.66,181.87l.49-4.88C94.3,178.74,94.79,180.44,92.66,181.87Z" transform="translate(-18.69 -17.2)"/><path d="M142,95c0,.34,0,.68,0,1l-5-.17C138.49,94.45,140.32,95.19,142,95Z" transform="translate(-18.69 -17.2)"/><path class="cls-102" d="M127,173.16l-4-.36c1.63-1.45,3.57-.66,5.39-.74Z" transform="translate(-18.69 -17.2)"/><path class="cls-40" d="M159.9,96.09,161,95c-.07,1.69.85,3.6-1,4.92Z" transform="translate(-18.69 -17.2)"/><path class="cls-53" d="M129.91,163.17l1.39-1.08c-.12,1.29-.25,2.58-.37,3.87l-1.11-1.34Z" transform="translate(-18.69 -17.2)"/><path class="cls-59" d="M114.93,132c.21-1.3,1.09-1.26,2.06-1.05.52,1,.72,1.9-.67,2.35h-.54A1.71,1.71,0,0,1,114.93,132Z" transform="translate(-18.69 -17.2)"/><path d="M110.93,107.93c.75-1.38,1.45-1.56,2.08.07l-.06,0a1.33,1.33,0,0,1-1.62.37Z" transform="translate(-18.69 -17.2)"/><path class="cls-101" d="M146.28,200.59l-1.32.35.45-1.12Z" transform="translate(-18.69 -17.2)"/><path d="M111,109.22,109.89,108l1,0,.1.11A.83.83,0,0,1,111,109.22Z" transform="translate(-18.69 -17.2)"/><path class="cls-1" d="M116.32,133.26l-1.23.82-.27-.31a.76.76,0,0,1,.07-1,.73.73,0,0,1,1,.09Q116.08,133.1,116.32,133.26Z" transform="translate(-18.69 -17.2)"/><path class="cls-1" d="M135,202.11a3.32,3.32,0,0,1-.08.89l-1-.23-.27-.38L134,202Z" transform="translate(-18.69 -17.2)"/><path d="M134,202a6.26,6.26,0,0,0,0,.75l-1.07-.5Z" transform="translate(-18.69 -17.2)"/><path class="cls-52" d="M107.09,122.85c-.27,2.62-1.44,4.12-3.79,4.18a3.18,3.18,0,0,1-3.47-3.4c-.08-2.07.81-3.55,3-3.82C105.4,119.5,106.24,121.31,107.09,122.85Z" transform="translate(-18.69 -17.2)"/><path class="cls-103" d="M107.08,138l-8.07.06c0-.33,0-.66,0-1l8-.21Z" transform="translate(-18.69 -17.2)"/><path class="cls-104" d="M88.9,123c-1.48-1.43-.64-3.31-1-5h1.17Z" transform="translate(-18.69 -17.2)"/><path class="cls-71" d="M111,109.22,111,108H113l0,1.08-1,.83C111.46,110,111.05,109.85,111,109.22Z" transform="translate(-18.69 -17.2)"/><path class="cls-82" d="M115.84,132.9a5.88,5.88,0,0,1-.94.11h-.66c-.19-.63.19-.87.69-1Z" transform="translate(-18.69 -17.2)"/><path d="M112,109.94l1-.83-.12,1.33Z" transform="translate(-18.69 -17.2)"/><path class="cls-45" d="M114.24,133h.67a1.31,1.31,0,0,1-.09.76,4.39,4.39,0,0,1-1,.17Z" transform="translate(-18.69 -17.2)"/><path class="cls-51" d="M132.11,112.05l1.87-1.21,7.2-2.71c2.37-.82,4.72-1.45,6.78.71,3.48.84,6.83,1.91,8.86,5.22q1.32,3.51,2.65,7a5.07,5.07,0,0,1-.32,6.89c-2.32,8.66-7.16,12-16.2,12.15a3.21,3.21,0,0,1-3.92-.73l-5.91-3.45c-2.51-1.73-1.84-5.68-4.9-7l.56-1.92a18.37,18.37,0,0,1,0-7l.43-2.91C130.13,115.36,132,114.23,132.11,112.05Z" transform="translate(-18.69 -17.2)"/><path class="cls-6" d="M159.15,128a12.34,12.34,0,0,0,.32-6.89C161.62,123.48,162.28,125.81,159.15,128Z" transform="translate(-18.69 -17.2)"/><path class="cls-8" d="M139,139.39l3.92.73C141.37,141.39,140,141.68,139,139.39Z" transform="translate(-18.69 -17.2)"/><path class="cls-9" d="M129.7,185.65l-4.57.22A3.31,3.31,0,0,1,129.7,185.65Z" transform="translate(-18.69 -17.2)"/><path class="cls-103" d="M148,108.84c-2.19-.94-4.51-.58-6.78-.71C143.79,106.32,145.58,106.51,148,108.84Z" transform="translate(-18.69 -17.2)"/><path class="cls-23" d="M158,93l1,2-.09,1-3.91.14a1.7,1.7,0,0,0-.86-.16c-.68-1.52-2.05-.78-3.13-1-.79-1.1-1.89-1.06-3-.86L145,93.29,143,92.9c-2.77-1-5.51.18-8.28.11h-9.42c-3.11.45-6.18-1.19-9.29-.18l.08.37c-5.36,1.07-11,.36-16.15,2.75-.43.77-1.44.43-2,1a4.84,4.84,0,0,1-3.87-1c-.83-2.27,1.13-3.36,2.05-4.89,1.24.26,2-.73,2.88-1.21l9-1.66c2.22,1,4.21-.19,6.28-.66,5,.2,10-.42,15,.35l4.72,0a9.2,9.2,0,0,1,5.93,1h2l2,1,2.94,0a6.37,6.37,0,0,0,4.9.27Z" transform="translate(-18.69 -17.2)"/><path class="cls-105" d="M129.33,87.89l-16.44.32a.77.77,0,0,1-1.2-.37c5.69-1.47,11.5-.21,17.24-.69A7.58,7.58,0,0,0,129.33,87.89Z" transform="translate(-18.69 -17.2)"/><path class="cls-106" d="M129,86c1.16.19,2.32-1.16,3.66-.15-1,1.69-2.44.89-3.65.92C129,86.53,129,86.28,129,86Z" transform="translate(-18.69 -17.2)"/><path class="cls-23" d="M111.69,87.84l1.2.37a3.66,3.66,0,0,1-4.84,0Z" transform="translate(-18.69 -17.2)"/><path class="cls-107" d="M138,93a34.72,34.72,0,0,1-18,0c1.59-1.08,3.38-.33,5.07-.55,3.18,0,6.36,0,9.54,0C135.76,92.64,137,92.24,138,93Z" transform="translate(-18.69 -17.2)"/><path class="cls-105" d="M124.72,92.88l-4.7.21-4-.25c3-1.58,6.17-.68,9.29-.68A.58.58,0,0,1,124.72,92.88Z" transform="translate(-18.69 -17.2)"/><path class="cls-105" d="M138,93l-2.71-.16a.58.58,0,0,1-.54-.72c2.76,0,5.62-1,8.23.74C141.3,92.72,139.67,93.84,138,93Z" transform="translate(-18.69 -17.2)"/><path class="cls-108" d="M119,95.8,114,96a2.22,2.22,0,0,1,2-1C117.09,95,118.21,94.85,119,95.8Z" transform="translate(-18.69 -17.2)"/><path class="cls-32" d="M140,88.86c-2.17.83-4-.55-5.93-1,1.79-1.58,4-.55,5.94-.83Z" transform="translate(-18.69 -17.2)"/><path class="cls-33" d="M97.94,97c.25-1.11,1.17-.95,2-1,1.09,1.52-.49.79-.89,1.05Z" transform="translate(-18.69 -17.2)"/><path class="cls-6" d="M99,105.26c2.43-.81,4.67.25,7,.68C103.5,107.62,101.22,106.87,99,105.26Z" transform="translate(-18.69 -17.2)"/><path class="cls-109" d="M128.81,120l0,7A6.17,6.17,0,0,1,128.81,120Z" transform="translate(-18.69 -17.2)"/><path class="cls-110" d="M144.08,128.42a3.06,3.06,0,0,1-3-3.55c.19-2.09,1.94-3.81,3.75-3.51a4.28,4.28,0,0,1,3.29,4.22C148.06,128.09,145.92,128,144.08,128.42Z" transform="translate(-18.69 -17.2)"/><path class="cls-56" d="M134.73,92.16l.53.72H124.73l.53-.72Z" transform="translate(-18.69 -17.2)"/></svg>